<mxfile host="65bd71144e">
    <diagram id="4hdrDz7Q9HRkZpPZPvPN" name="Page-1">
        <mxGraphModel grid="1" page="1" gridSize="10" guides="1" tooltips="1" connect="1" arrows="1" fold="1" pageScale="1" pageWidth="850" pageHeight="1100" math="0" shadow="0">
            <root>
                <mxCell id="0"/>
                <mxCell id="1" parent="0"/>
                <mxCell id="2" value="Customer" style="shape=umlActor;verticalLabelPosition=bottom;verticalAlign=top;html=1;outlineConnect=0;" parent="1" vertex="1">
                    <mxGeometry x="40" y="40" width="40" height="80" as="geometry"/>
                </mxCell>
                <mxCell id="3" value="" style="endArrow=none;dashed=1;html=1;dashPattern=1 3;strokeWidth=2;startArrow=none;" parent="1" edge="1" source="4">
                    <mxGeometry width="50" height="50" relative="1" as="geometry">
                        <mxPoint x="60" y="920" as="sourcePoint"/>
                        <mxPoint x="59.5" y="150" as="targetPoint"/>
                        <Array as="points"/>
                    </mxGeometry>
                </mxCell>
                <mxCell id="5" value="" style="endArrow=none;dashed=1;html=1;dashPattern=1 3;strokeWidth=2;" edge="1" parent="1" target="4">
                    <mxGeometry width="50" height="50" relative="1" as="geometry">
                        <mxPoint x="60" y="720" as="sourcePoint"/>
                        <mxPoint x="59.5" y="150" as="targetPoint"/>
                        <Array as="points"/>
                    </mxGeometry>
                </mxCell>
                <mxCell id="4" value="" style="rounded=0;whiteSpace=wrap;html=1;fontSize=9;" vertex="1" parent="1">
                    <mxGeometry x="56.15" y="170" width="7.69" height="510" as="geometry"/>
                </mxCell>
                <mxCell id="7" value="&lt;font style=&quot;font-size: 9px;&quot;&gt;&amp;lt;&amp;lt;Boundary&amp;gt;&amp;gt;&lt;br&gt;:Chat_Assist&lt;br&gt;&lt;/font&gt;" style="rounded=0;whiteSpace=wrap;html=1;" vertex="1" parent="1">
                    <mxGeometry x="149.99999999999997" y="62.5" width="110" height="35" as="geometry"/>
                </mxCell>
                <mxCell id="8" value="&lt;font style=&quot;font-size: 9px;&quot;&gt;&amp;lt;&amp;lt;Control&amp;gt;&amp;gt;&lt;br&gt;:ChatControl&lt;br&gt;&lt;/font&gt;" style="rounded=0;whiteSpace=wrap;html=1;" vertex="1" parent="1">
                    <mxGeometry x="310" y="62.5" width="110" height="35" as="geometry"/>
                </mxCell>
                <mxCell id="9" value="&lt;font style=&quot;font-size: 9px;&quot;&gt;&amp;lt;&amp;lt;entity&amp;gt;&amp;gt;&lt;br&gt;:ChatBot&lt;/font&gt;" style="rounded=0;whiteSpace=wrap;html=1;" vertex="1" parent="1">
                    <mxGeometry x="480" y="62.5" width="110" height="35" as="geometry"/>
                </mxCell>
                <mxCell id="12" value="" style="endArrow=none;dashed=1;html=1;dashPattern=1 3;strokeWidth=2;startArrow=none;" edge="1" parent="1" source="17">
                    <mxGeometry width="50" height="50" relative="1" as="geometry">
                        <mxPoint x="364.496052631579" y="110" as="sourcePoint"/>
                        <mxPoint x="365" y="720" as="targetPoint"/>
                        <Array as="points"/>
                    </mxGeometry>
                </mxCell>
                <mxCell id="14" value="" style="endArrow=classic;html=1;verticalAlign=top;" edge="1" parent="1">
                    <mxGeometry width="50" height="50" relative="1" as="geometry">
                        <mxPoint x="520" y="220" as="sourcePoint"/>
                        <mxPoint x="380" y="220" as="targetPoint"/>
                    </mxGeometry>
                </mxCell>
                <mxCell id="16" value="" style="endArrow=none;dashed=1;html=1;dashPattern=1 3;strokeWidth=2;startArrow=none;" edge="1" parent="1" target="15">
                    <mxGeometry width="50" height="50" relative="1" as="geometry">
                        <mxPoint x="534.496052631579" y="110" as="sourcePoint"/>
                        <mxPoint x="535" y="920" as="targetPoint"/>
                        <Array as="points"/>
                    </mxGeometry>
                </mxCell>
                <mxCell id="15" value="&lt;span style=&quot;color: rgba(0, 0, 0, 0); font-family: monospace; font-size: 0px; text-align: start;&quot;&gt;%3CmxGraphModel%3E%3Croot%3E%3CmxCell%20id%3D%220%22%2F%3E%3CmxCell%20id%3D%221%22%20parent%3D%220%22%2F%3E%3CmxCell%20id%3D%222%22%20value%3D%22%E0%B8%AD%22%20style%3D%22rounded%3D0%3BwhiteSpace%3Dwrap%3Bhtml%3D1%3BfontSize%3D9%3B%22%20vertex%3D%221%22%20parent%3D%221%22%3E%3CmxGeometry%20x%3D%22531.15%22%20y%3D%22150%22%20width%3D%227.69%22%20height%3D%22120%22%20as%3D%22geometry%22%2F%3E%3C%2FmxCell%3E%3C%2Froot%3E%3C%2FmxGraphModel%3E&lt;/span&gt;&lt;span style=&quot;color: rgba(0, 0, 0, 0); font-family: monospace; font-size: 0px; text-align: start;&quot;&gt;%3CmxGraphModel%3E%3Croot%3E%3CmxCell%20id%3D%220%22%2F%3E%3CmxCell%20id%3D%221%22%20parent%3D%220%22%2F%3E%3CmxCell%20id%3D%222%22%20value%3D%22%E0%B8%AD%22%20style%3D%22rounded%3D0%3BwhiteSpace%3Dwrap%3Bhtml%3D1%3BfontSize%3D9%3B%22%20vertex%3D%221%22%20parent%3D%221%22%3E%3CmxGeometry%20x%3D%22531.15%22%20y%3D%22150%22%20width%3D%227.69%22%20height%3D%22120%22%20as%3D%22geometry%22%2F%3E%3C%2FmxCell%3E%3C%2Froot%3E%3C%2FmxGraphModel%3E&lt;/span&gt;" style="rounded=0;whiteSpace=wrap;html=1;fontSize=9;" vertex="1" parent="1">
                    <mxGeometry x="531.15" y="150" width="7.69" height="90" as="geometry"/>
                </mxCell>
                <mxCell id="18" value="" style="endArrow=none;dashed=1;html=1;dashPattern=1 3;strokeWidth=2;startArrow=none;" edge="1" parent="1" target="17">
                    <mxGeometry width="50" height="50" relative="1" as="geometry">
                        <mxPoint x="364.496052631579" y="110" as="sourcePoint"/>
                        <mxPoint x="365" y="920" as="targetPoint"/>
                        <Array as="points"/>
                    </mxGeometry>
                </mxCell>
                <mxCell id="17" value="" style="rounded=0;whiteSpace=wrap;html=1;fontSize=9;" vertex="1" parent="1">
                    <mxGeometry x="361.15" y="150" width="7.69" height="110" as="geometry"/>
                </mxCell>
                <mxCell id="21" value="" style="endArrow=classic;html=1;" edge="1" parent="1">
                    <mxGeometry width="50" height="50" relative="1" as="geometry">
                        <mxPoint x="350" y="240" as="sourcePoint"/>
                        <mxPoint x="210" y="240" as="targetPoint"/>
                    </mxGeometry>
                </mxCell>
                <mxCell id="24" value="" style="endArrow=classic;html=1;verticalAlign=top;" edge="1" parent="1">
                    <mxGeometry width="50" height="50" relative="1" as="geometry">
                        <mxPoint x="380" y="180" as="sourcePoint"/>
                        <mxPoint x="520" y="180" as="targetPoint"/>
                    </mxGeometry>
                </mxCell>
                <mxCell id="25" value="RandomQuestions()" style="text;html=1;align=center;verticalAlign=middle;resizable=0;points=[];autosize=1;strokeColor=none;fillColor=none;fontSize=9;" vertex="1" parent="1">
                    <mxGeometry x="400" y="160" width="100" height="20" as="geometry"/>
                </mxCell>
                <mxCell id="26" value="SendQuestions()" style="text;html=1;align=center;verticalAlign=middle;resizable=0;points=[];autosize=1;strokeColor=none;fillColor=none;fontSize=9;" vertex="1" parent="1">
                    <mxGeometry x="405" y="200" width="90" height="20" as="geometry"/>
                </mxCell>
                <mxCell id="27" value="SendQuestions()" style="text;html=1;align=center;verticalAlign=middle;resizable=0;points=[];autosize=1;strokeColor=none;fillColor=none;fontSize=9;" vertex="1" parent="1">
                    <mxGeometry x="240" y="220" width="90" height="20" as="geometry"/>
                </mxCell>
                <mxCell id="30" value="ShowQuestions()" style="text;html=1;align=center;verticalAlign=middle;resizable=0;points=[];autosize=1;strokeColor=none;fillColor=none;fontSize=9;" vertex="1" parent="1">
                    <mxGeometry x="80" y="231" width="90" height="20" as="geometry"/>
                </mxCell>
                <mxCell id="31" value="" style="endArrow=classic;html=1;verticalAlign=top;" edge="1" parent="1">
                    <mxGeometry width="50" height="50" relative="1" as="geometry">
                        <mxPoint x="190" y="251" as="sourcePoint"/>
                        <mxPoint x="70" y="251" as="targetPoint"/>
                    </mxGeometry>
                </mxCell>
                <mxCell id="37" value="" style="endArrow=none;dashed=1;html=1;dashPattern=1 3;strokeWidth=2;startArrow=none;" edge="1" parent="1" source="40">
                    <mxGeometry width="50" height="50" relative="1" as="geometry">
                        <mxPoint x="200" y="110" as="sourcePoint"/>
                        <mxPoint x="200" y="720" as="targetPoint"/>
                        <Array as="points"/>
                    </mxGeometry>
                </mxCell>
                <mxCell id="39" value="" style="endArrow=none;dashed=1;html=1;dashPattern=1 3;strokeWidth=2;startArrow=none;" edge="1" parent="1" target="38">
                    <mxGeometry width="50" height="50" relative="1" as="geometry">
                        <mxPoint x="200" y="110" as="sourcePoint"/>
                        <mxPoint x="200" y="920.8333333333335" as="targetPoint"/>
                        <Array as="points"/>
                    </mxGeometry>
                </mxCell>
                <mxCell id="38" value="&lt;span style=&quot;color: rgba(0, 0, 0, 0); font-family: monospace; font-size: 0px; text-align: start;&quot;&gt;%3CmxGraphModel%3E%3Croot%3E%3CmxCell%20id%3D%220%22%2F%3E%3CmxCell%20id%3D%221%22%20parent%3D%220%22%2F%3E%3CmxCell%20id%3D%222%22%20value%3D%22%E0%B8%AD%22%20style%3D%22rounded%3D0%3BwhiteSpace%3Dwrap%3Bhtml%3D1%3BfontSize%3D9%3B%22%20vertex%3D%221%22%20parent%3D%221%22%3E%3CmxGeometry%20x%3D%22531.15%22%20y%3D%22150%22%20width%3D%227.69%22%20height%3D%22120%22%20as%3D%22geometry%22%2F%3E%3C%2FmxCell%3E%3C%2Froot%3E%3C%2FmxGraphModel%3E&lt;/span&gt;&lt;span style=&quot;color: rgba(0, 0, 0, 0); font-family: monospace; font-size: 0px; text-align: start;&quot;&gt;%3CmxGraphModel%3E%3Croot%3E%3CmxCell%20id%3D%220%22%2F%3E%3CmxCell%20id%3D%221%22%20parent%3D%220%22%2F%3E%3CmxCell%20id%3D%222%22%20value%3D%22%E0%B8%AD%22%20style%3D%22rounded%3D0%3BwhiteSpace%3Dwrap%3Bhtml%3D1%3BfontSize%3D9%3B%22%20vertex%3D%221%22%20parent%3D%221%22%3E%3CmxGeometry%20x%3D%22531.15%22%20y%3D%22150%22%20width%3D%227.69%22%20height%3D%22120%22%20as%3D%22geometry%22%2F%3E%3C%2FmxCell%3E%3C%2Froot%3E%3C%2FmxGraphModel%3E&lt;/span&gt;" style="rounded=0;whiteSpace=wrap;html=1;fontSize=9;" vertex="1" parent="1">
                    <mxGeometry x="196.15" y="200" width="7.69" height="63" as="geometry"/>
                </mxCell>
                <mxCell id="41" value="" style="endArrow=none;dashed=1;html=1;dashPattern=1 3;strokeWidth=2;startArrow=none;" edge="1" parent="1" source="38" target="40">
                    <mxGeometry width="50" height="50" relative="1" as="geometry">
                        <mxPoint x="199.99522848162474" y="263" as="sourcePoint"/>
                        <mxPoint x="200" y="920.8333333333335" as="targetPoint"/>
                        <Array as="points"/>
                    </mxGeometry>
                </mxCell>
                <mxCell id="40" value="" style="rounded=0;whiteSpace=wrap;html=1;fontSize=9;" vertex="1" parent="1">
                    <mxGeometry x="196.15" y="320" width="7.69" height="140" as="geometry"/>
                </mxCell>
                <mxCell id="42" value="" style="endArrow=classic;html=1;verticalAlign=top;" edge="1" parent="1">
                    <mxGeometry width="50" height="50" relative="1" as="geometry">
                        <mxPoint x="70.23" y="340" as="sourcePoint"/>
                        <mxPoint x="192.15" y="340" as="targetPoint"/>
                    </mxGeometry>
                </mxCell>
                <mxCell id="43" value="ChooseQuestions()" style="text;html=1;align=center;verticalAlign=middle;resizable=0;points=[];autosize=1;strokeColor=none;fillColor=none;fontSize=9;" vertex="1" parent="1">
                    <mxGeometry x="77" y="317" width="100" height="20" as="geometry"/>
                </mxCell>
                <mxCell id="45" value="" style="endArrow=classic;html=1;verticalAlign=top;" edge="1" parent="1">
                    <mxGeometry width="50" height="50" relative="1" as="geometry">
                        <mxPoint x="208.08" y="360.0000000000001" as="sourcePoint"/>
                        <mxPoint x="350" y="360" as="targetPoint"/>
                    </mxGeometry>
                </mxCell>
                <mxCell id="46" value="SendQuestions()" style="text;html=1;align=center;verticalAlign=middle;resizable=0;points=[];autosize=1;strokeColor=none;fillColor=none;fontSize=9;" vertex="1" parent="1">
                    <mxGeometry x="240" y="337" width="90" height="20" as="geometry"/>
                </mxCell>
                <mxCell id="47" value="" style="rounded=0;whiteSpace=wrap;html=1;fontSize=9;" vertex="1" parent="1">
                    <mxGeometry x="361.15" y="333" width="7.69" height="47" as="geometry"/>
                </mxCell>
                <mxCell id="48" value="" style="endArrow=classic;html=1;verticalAlign=top;" edge="1" parent="1">
                    <mxGeometry width="50" height="50" relative="1" as="geometry">
                        <mxPoint x="379.03999999999996" y="370.0000000000001" as="sourcePoint"/>
                        <mxPoint x="520.96" y="370.0000000000001" as="targetPoint"/>
                    </mxGeometry>
                </mxCell>
                <mxCell id="49" value="SendQuestions()" style="text;html=1;align=center;verticalAlign=middle;resizable=0;points=[];autosize=1;strokeColor=none;fillColor=none;fontSize=9;" vertex="1" parent="1">
                    <mxGeometry x="410.96000000000004" y="347" width="90" height="20" as="geometry"/>
                </mxCell>
                <mxCell id="51" value="" style="endArrow=none;dashed=1;html=1;dashPattern=1 3;strokeWidth=2;startArrow=none;" edge="1" parent="1" source="15" target="50">
                    <mxGeometry width="50" height="50" relative="1" as="geometry">
                        <mxPoint x="534.996551724138" y="239.9999999999999" as="sourcePoint"/>
                        <mxPoint x="535" y="920" as="targetPoint"/>
                        <Array as="points"/>
                    </mxGeometry>
                </mxCell>
                <mxCell id="50" value="&lt;span style=&quot;color: rgba(0, 0, 0, 0); font-family: monospace; font-size: 0px; text-align: start;&quot;&gt;%3CmxGraphModel%3E%3Croot%3E%3CmxCell%20id%3D%220%22%2F%3E%3CmxCell%20id%3D%221%22%20parent%3D%220%22%2F%3E%3CmxCell%20id%3D%222%22%20value%3D%22%E0%B8%AD%22%20style%3D%22rounded%3D0%3BwhiteSpace%3Dwrap%3Bhtml%3D1%3BfontSize%3D9%3B%22%20vertex%3D%221%22%20parent%3D%221%22%3E%3CmxGeometry%20x%3D%22531.15%22%20y%3D%22150%22%20width%3D%227.69%22%20height%3D%22120%22%20as%3D%22geometry%22%2F%3E%3C%2FmxCell%3E%3C%2Froot%3E%3C%2FmxGraphModel%3E&lt;/span&gt;&lt;span style=&quot;color: rgba(0, 0, 0, 0); font-family: monospace; font-size: 0px; text-align: start;&quot;&gt;%3CmxGraphModel%3E%3Croot%3E%3CmxCell%20id%3D%220%22%2F%3E%3CmxCell%20id%3D%221%22%20parent%3D%220%22%2F%3E%3CmxCell%20id%3D%222%22%20value%3D%22%E0%B8%AD%22%20style%3D%22rounded%3D0%3BwhiteSpace%3Dwrap%3Bhtml%3D1%3BfontSize%3D9%3B%22%20vertex%3D%221%22%20parent%3D%221%22%3E%3CmxGeometry%20x%3D%22531.15%22%20y%3D%22150%22%20width%3D%227.69%22%20height%3D%22120%22%20as%3D%22geometry%22%2F%3E%3C%2FmxCell%3E%3C%2Froot%3E%3C%2FmxGraphModel%3E&lt;/span&gt;" style="rounded=0;whiteSpace=wrap;html=1;fontSize=9;" vertex="1" parent="1">
                    <mxGeometry x="531.15" y="337" width="7.69" height="90" as="geometry"/>
                </mxCell>
                <mxCell id="52" value="" style="endArrow=classic;html=1;fontSize=9;dashed=1;" edge="1" parent="1">
                    <mxGeometry width="50" height="50" relative="1" as="geometry">
                        <mxPoint x="520" y="401" as="sourcePoint"/>
                        <mxPoint x="210" y="401" as="targetPoint"/>
                    </mxGeometry>
                </mxCell>
                <mxCell id="54" value="ReturnAnswer()" style="text;html=1;align=center;verticalAlign=middle;resizable=0;points=[];autosize=1;strokeColor=none;fillColor=none;fontSize=9;" vertex="1" parent="1">
                    <mxGeometry x="250.00000000000003" y="380" width="90" height="20" as="geometry"/>
                </mxCell>
                <mxCell id="55" value="ShowAnswer()" style="text;html=1;align=center;verticalAlign=middle;resizable=0;points=[];autosize=1;strokeColor=none;fillColor=none;fontSize=9;" vertex="1" parent="1">
                    <mxGeometry x="84" y="439" width="80" height="20" as="geometry"/>
                </mxCell>
                <mxCell id="56" value="" style="endArrow=classic;html=1;verticalAlign=top;" edge="1" parent="1">
                    <mxGeometry width="50" height="50" relative="1" as="geometry">
                        <mxPoint x="189" y="458.9999999999999" as="sourcePoint"/>
                        <mxPoint x="69" y="458.9999999999999" as="targetPoint"/>
                    </mxGeometry>
                </mxCell>
                <mxCell id="57" value="&lt;font style=&quot;font-size: 9px;&quot;&gt;Alternative flow&lt;/font&gt;" style="shape=umlFrame;whiteSpace=wrap;html=1;width=80;height=20;boundedLbl=1;verticalAlign=middle;align=left;spacingLeft=5;strokeWidth=1;fontSize=9;fillColor=#f8cecc;strokeColor=#b85450;" vertex="1" parent="1">
                    <mxGeometry x="70" y="422.5" width="330" height="53" as="geometry"/>
                </mxCell>
                <mxCell id="59" value="" style="endArrow=none;dashed=1;html=1;dashPattern=1 3;strokeWidth=2;startArrow=none;" edge="1" parent="1">
                    <mxGeometry width="50" height="50" relative="1" as="geometry">
                        <mxPoint x="534.5750000000002" y="426.9999999999999" as="sourcePoint"/>
                        <mxPoint x="530" y="720" as="targetPoint"/>
                        <Array as="points"/>
                    </mxGeometry>
                </mxCell>
                <mxCell id="60" value="ถ้าลูกค้าถามคำถามแล้วประมาณ&amp;nbsp; 6-8 คำถาม&amp;nbsp; ขึ้นตัวเลือกติดต่อผู้ขาย" style="text;html=1;align=center;verticalAlign=middle;resizable=0;points=[];autosize=1;fontSize=9;fontColor=#990000;" vertex="1" parent="1">
                    <mxGeometry x="120" y="459" width="270" height="20" as="geometry"/>
                </mxCell>
                <mxCell id="61" value="" style="rounded=0;whiteSpace=wrap;html=1;fontSize=9;" vertex="1" parent="1">
                    <mxGeometry x="196.15" y="513" width="7.69" height="140" as="geometry"/>
                </mxCell>
                <mxCell id="62" value="" style="endArrow=classic;html=1;verticalAlign=top;" edge="1" parent="1">
                    <mxGeometry width="50" height="50" relative="1" as="geometry">
                        <mxPoint x="70.23000000000002" y="533.0000000000001" as="sourcePoint"/>
                        <mxPoint x="192.1500000000001" y="533.0000000000001" as="targetPoint"/>
                    </mxGeometry>
                </mxCell>
                <mxCell id="63" value="SendQuestions()" style="text;html=1;align=center;verticalAlign=middle;resizable=0;points=[];autosize=1;strokeColor=none;fillColor=none;fontSize=9;" vertex="1" parent="1">
                    <mxGeometry x="82" y="510" width="90" height="20" as="geometry"/>
                </mxCell>
                <mxCell id="67" value="" style="rounded=0;whiteSpace=wrap;html=1;fontSize=9;" vertex="1" parent="1">
                    <mxGeometry x="361.15" y="533" width="7.69" height="47" as="geometry"/>
                </mxCell>
                <mxCell id="68" value="" style="endArrow=classic;html=1;verticalAlign=top;" edge="1" parent="1">
                    <mxGeometry width="50" height="50" relative="1" as="geometry">
                        <mxPoint x="210" y="553" as="sourcePoint"/>
                        <mxPoint x="357.1500000000001" y="553" as="targetPoint"/>
                    </mxGeometry>
                </mxCell>
                <mxCell id="69" value="SendQuestions()" style="text;html=1;align=center;verticalAlign=middle;resizable=0;points=[];autosize=1;strokeColor=none;fillColor=none;fontSize=9;" vertex="1" parent="1">
                    <mxGeometry x="247" y="530" width="90" height="20" as="geometry"/>
                </mxCell>
                <mxCell id="70" value="" style="endArrow=classic;html=1;verticalAlign=top;" edge="1" parent="1">
                    <mxGeometry width="50" height="50" relative="1" as="geometry">
                        <mxPoint x="379.03999999999996" y="559" as="sourcePoint"/>
                        <mxPoint x="520.96" y="559" as="targetPoint"/>
                    </mxGeometry>
                </mxCell>
                <mxCell id="71" value="FindQuestions()" style="text;html=1;align=center;verticalAlign=middle;resizable=0;points=[];autosize=1;strokeColor=none;fillColor=none;fontSize=9;" vertex="1" parent="1">
                    <mxGeometry x="402.98" y="538" width="90" height="20" as="geometry"/>
                </mxCell>
                <mxCell id="72" value="&lt;span style=&quot;color: rgba(0, 0, 0, 0); font-family: monospace; font-size: 0px; text-align: start;&quot;&gt;%3CmxGraphModel%3E%3Croot%3E%3CmxCell%20id%3D%220%22%2F%3E%3CmxCell%20id%3D%221%22%20parent%3D%220%22%2F%3E%3CmxCell%20id%3D%222%22%20value%3D%22%E0%B8%AD%22%20style%3D%22rounded%3D0%3BwhiteSpace%3Dwrap%3Bhtml%3D1%3BfontSize%3D9%3B%22%20vertex%3D%221%22%20parent%3D%221%22%3E%3CmxGeometry%20x%3D%22531.15%22%20y%3D%22150%22%20width%3D%227.69%22%20height%3D%22120%22%20as%3D%22geometry%22%2F%3E%3C%2FmxCell%3E%3C%2Froot%3E%3C%2FmxGraphModel%3E&lt;/span&gt;&lt;span style=&quot;color: rgba(0, 0, 0, 0); font-family: monospace; font-size: 0px; text-align: start;&quot;&gt;%3CmxGraphModel%3E%3Croot%3E%3CmxCell%20id%3D%220%22%2F%3E%3CmxCell%20id%3D%221%22%20parent%3D%220%22%2F%3E%3CmxCell%20id%3D%222%22%20value%3D%22%E0%B8%AD%22%20style%3D%22rounded%3D0%3BwhiteSpace%3Dwrap%3Bhtml%3D1%3BfontSize%3D9%3B%22%20vertex%3D%221%22%20parent%3D%221%22%3E%3CmxGeometry%20x%3D%22531.15%22%20y%3D%22150%22%20width%3D%227.69%22%20height%3D%22120%22%20as%3D%22geometry%22%2F%3E%3C%2FmxCell%3E%3C%2Froot%3E%3C%2FmxGraphModel%3E&lt;/span&gt;" style="rounded=0;whiteSpace=wrap;html=1;fontSize=9;" vertex="1" parent="1">
                    <mxGeometry x="528.17" y="538" width="7.69" height="90" as="geometry"/>
                </mxCell>
                <mxCell id="75" value="" style="endArrow=classic;html=1;fontSize=9;dashed=1;" edge="1" parent="1">
                    <mxGeometry width="50" height="50" relative="1" as="geometry">
                        <mxPoint x="520" y="596" as="sourcePoint"/>
                        <mxPoint x="210" y="596" as="targetPoint"/>
                    </mxGeometry>
                </mxCell>
                <mxCell id="76" value="&lt;br&gt;ReturnQuestions()" style="text;html=1;align=center;verticalAlign=middle;resizable=0;points=[];autosize=1;strokeColor=none;fillColor=none;fontSize=9;" vertex="1" parent="1">
                    <mxGeometry x="245" y="565" width="100" height="40" as="geometry"/>
                </mxCell>
                <mxCell id="77" value="ShowQuestions()" style="text;html=1;align=center;verticalAlign=middle;resizable=0;points=[];autosize=1;strokeColor=none;fillColor=none;fontSize=9;" vertex="1" parent="1">
                    <mxGeometry x="86.15" y="620.17" width="90" height="20" as="geometry"/>
                </mxCell>
                <mxCell id="78" value="" style="endArrow=classic;html=1;verticalAlign=top;" edge="1" parent="1">
                    <mxGeometry width="50" height="50" relative="1" as="geometry">
                        <mxPoint x="188.15" y="640.1699999999998" as="sourcePoint"/>
                        <mxPoint x="68.15" y="640.1699999999998" as="targetPoint"/>
                    </mxGeometry>
                </mxCell>
                <mxCell id="79" value="&lt;font style=&quot;font-size: 9px;&quot;&gt;Alternative flow&lt;/font&gt;" style="shape=umlFrame;whiteSpace=wrap;html=1;width=80;height=20;boundedLbl=1;verticalAlign=middle;align=left;spacingLeft=5;strokeWidth=1;fontSize=9;fillColor=#f8cecc;strokeColor=#b85450;" vertex="1" parent="1">
                    <mxGeometry x="68" y="603.67" width="330" height="53" as="geometry"/>
                </mxCell>
                <mxCell id="80" value="ถ้าไม่มีคำถามที่พิมพ์มา แสดง &quot;ไม่มีข้อมูล&quot;" style="text;html=1;align=center;verticalAlign=middle;resizable=0;points=[];autosize=1;fontSize=9;fontColor=#990000;" vertex="1" parent="1">
                    <mxGeometry x="209.15999999999997" y="642.67" width="180" height="20" as="geometry"/>
                </mxCell>
            </root>
        </mxGraphModel>
    </diagram>
    <diagram id="cL9UutqBdXzwN1XWlvz5" name="Page-2">
        <mxGraphModel dx="1238" dy="787" grid="1" gridSize="10" guides="1" tooltips="1" connect="1" arrows="1" fold="1" page="1" pageScale="1" pageWidth="850" pageHeight="1100" math="0" shadow="0">
            <root>
                <mxCell id="0"/>
                <mxCell id="1" parent="0"/>
                <mxCell id="cw4E4tKnkDUjljcfsdXo-1" value="Customer" style="shape=umlActor;verticalLabelPosition=bottom;verticalAlign=top;html=1;outlineConnect=0;fontSize=9;fontColor=#1C0000;" vertex="1" parent="1">
                    <mxGeometry x="180" y="210" width="30" height="80" as="geometry"/>
                </mxCell>
                <mxCell id="cw4E4tKnkDUjljcfsdXo-4" value="Chat_Assist" style="shape=umlBoundary;whiteSpace=wrap;html=1;" vertex="1" parent="1">
                    <mxGeometry x="470" y="210" width="100" height="80" as="geometry"/>
                </mxCell>
                <mxCell id="cw4E4tKnkDUjljcfsdXo-5" value="ChatControl" style="ellipse;shape=umlControl;whiteSpace=wrap;html=1;" vertex="1" parent="1">
                    <mxGeometry x="479.99999999999994" y="600" width="80" height="90" as="geometry"/>
                </mxCell>
                <mxCell id="cw4E4tKnkDUjljcfsdXo-6" value="ChatBot" style="ellipse;shape=umlEntity;whiteSpace=wrap;html=1;" vertex="1" parent="1">
                    <mxGeometry x="99.99999999999994" y="610" width="80" height="80" as="geometry"/>
                </mxCell>
                <mxCell id="cw4E4tKnkDUjljcfsdXo-9" value="" style="endArrow=none;html=1;fontSize=9;fontColor=#1C0000;" edge="1" parent="1">
                    <mxGeometry width="50" height="50" relative="1" as="geometry">
                        <mxPoint x="195" y="250" as="sourcePoint"/>
                        <mxPoint x="475" y="250" as="targetPoint"/>
                    </mxGeometry>
                </mxCell>
                <mxCell id="cw4E4tKnkDUjljcfsdXo-10" value="" style="endArrow=none;html=1;fontSize=9;fontColor=#1C0000;entryX=-0.012;entryY=0.556;entryDx=0;entryDy=0;entryPerimeter=0;exitX=1;exitY=0.5;exitDx=0;exitDy=0;" edge="1" parent="1" source="cw4E4tKnkDUjljcfsdXo-6" target="cw4E4tKnkDUjljcfsdXo-5">
                    <mxGeometry width="50" height="50" relative="1" as="geometry">
                        <mxPoint x="245" y="649.5" as="sourcePoint"/>
                        <mxPoint x="475" y="650" as="targetPoint"/>
                    </mxGeometry>
                </mxCell>
                <mxCell id="cw4E4tKnkDUjljcfsdXo-11" value="" style="endArrow=none;html=1;fontSize=9;fontColor=#1C0000;exitX=0.55;exitY=0.133;exitDx=0;exitDy=0;exitPerimeter=0;entryX=0.55;entryY=1.025;entryDx=0;entryDy=0;entryPerimeter=0;" edge="1" parent="1" source="cw4E4tKnkDUjljcfsdXo-5" target="cw4E4tKnkDUjljcfsdXo-4">
                    <mxGeometry width="50" height="50" relative="1" as="geometry">
                        <mxPoint x="495" y="430" as="sourcePoint"/>
                        <mxPoint x="545" y="380" as="targetPoint"/>
                    </mxGeometry>
                </mxCell>
                <mxCell id="cw4E4tKnkDUjljcfsdXo-13" value="" style="endArrow=classic;html=1;fontSize=9;fontColor=#1C0000;" edge="1" parent="1">
                    <mxGeometry width="50" height="50" relative="1" as="geometry">
                        <mxPoint x="475" y="670" as="sourcePoint"/>
                        <mxPoint x="205" y="670" as="targetPoint"/>
                    </mxGeometry>
                </mxCell>
                <mxCell id="cw4E4tKnkDUjljcfsdXo-14" value="1.RandomQuestions()&lt;br&gt;2.2.SendQuestions()&lt;br&gt;3.2FindQuestion()" style="text;html=1;align=center;verticalAlign=middle;resizable=0;points=[];autosize=1;strokeColor=none;fillColor=none;fontSize=12;fontColor=#1C0000;" vertex="1" parent="1">
                    <mxGeometry x="285" y="670" width="140" height="60" as="geometry"/>
                </mxCell>
                <mxCell id="cw4E4tKnkDUjljcfsdXo-16" value="" style="endArrow=classic;html=1;fontSize=9;fontColor=#1C0000;" edge="1" parent="1">
                    <mxGeometry width="50" height="50" relative="1" as="geometry">
                        <mxPoint x="215" y="630" as="sourcePoint"/>
                        <mxPoint x="470" y="630" as="targetPoint"/>
                    </mxGeometry>
                </mxCell>
                <mxCell id="cw4E4tKnkDUjljcfsdXo-17" value="1.2.SendQuestions()" style="text;html=1;align=center;verticalAlign=middle;resizable=0;points=[];autosize=1;strokeColor=none;fillColor=none;fontSize=12;fontColor=#1C0000;" vertex="1" parent="1">
                    <mxGeometry x="290" y="600" width="130" height="30" as="geometry"/>
                </mxCell>
                <mxCell id="cw4E4tKnkDUjljcfsdXo-18" value="" style="endArrow=classic;html=1;fontSize=12;fontColor=#1C0000;" edge="1" parent="1">
                    <mxGeometry width="50" height="50" relative="1" as="geometry">
                        <mxPoint x="505" y="586" as="sourcePoint"/>
                        <mxPoint x="505" y="316" as="targetPoint"/>
                    </mxGeometry>
                </mxCell>
                <mxCell id="cw4E4tKnkDUjljcfsdXo-19" value="1.3.SendQuestions()" style="text;html=1;align=center;verticalAlign=middle;resizable=0;points=[];autosize=1;strokeColor=none;fillColor=none;fontSize=12;fontColor=#1C0000;" vertex="1" parent="1">
                    <mxGeometry x="365" y="430" width="130" height="30" as="geometry"/>
                </mxCell>
                <mxCell id="cw4E4tKnkDUjljcfsdXo-20" value="" style="endArrow=classic;html=1;fontSize=9;fontColor=#1C0000;" edge="1" parent="1">
                    <mxGeometry width="50" height="50" relative="1" as="geometry">
                        <mxPoint x="456" y="265" as="sourcePoint"/>
                        <mxPoint x="236" y="265" as="targetPoint"/>
                    </mxGeometry>
                </mxCell>
                <mxCell id="cw4E4tKnkDUjljcfsdXo-21" value="1.4.ShowQuestions()&lt;br&gt;2.4.ShowAnswer()&lt;br&gt;3.4.ShowQuestions()" style="text;html=1;align=center;verticalAlign=middle;resizable=0;points=[];autosize=1;strokeColor=none;fillColor=none;fontSize=12;fontColor=#1C0000;" vertex="1" parent="1">
                    <mxGeometry x="260" y="266" width="140" height="60" as="geometry"/>
                </mxCell>
                <mxCell id="cw4E4tKnkDUjljcfsdXo-22" value="" style="endArrow=classic;html=1;fontSize=9;fontColor=#1C0000;" edge="1" parent="1">
                    <mxGeometry width="50" height="50" relative="1" as="geometry">
                        <mxPoint x="235" y="240" as="sourcePoint"/>
                        <mxPoint x="455" y="240" as="targetPoint"/>
                    </mxGeometry>
                </mxCell>
                <mxCell id="cw4E4tKnkDUjljcfsdXo-23" value="2.ChoseQuestions()&lt;br&gt;3.SendQuestions()" style="text;html=1;align=left;verticalAlign=middle;resizable=0;points=[];autosize=1;strokeColor=none;fillColor=none;fontSize=12;fontColor=#1C0000;" vertex="1" parent="1">
                    <mxGeometry x="285" y="200" width="130" height="40" as="geometry"/>
                </mxCell>
                <mxCell id="cw4E4tKnkDUjljcfsdXo-24" value="" style="endArrow=classic;html=1;fontSize=12;fontColor=#1C0000;" edge="1" parent="1">
                    <mxGeometry width="50" height="50" relative="1" as="geometry">
                        <mxPoint x="545" y="312" as="sourcePoint"/>
                        <mxPoint x="545" y="582" as="targetPoint"/>
                    </mxGeometry>
                </mxCell>
                <mxCell id="cw4E4tKnkDUjljcfsdXo-25" value="2.1.SendQuestions()&lt;br&gt;3.1.SendQuestions()" style="text;html=1;align=center;verticalAlign=middle;resizable=0;points=[];autosize=1;strokeColor=none;fillColor=none;fontSize=12;fontColor=#1C0000;" vertex="1" parent="1">
                    <mxGeometry x="560" y="390" width="130" height="40" as="geometry"/>
                </mxCell>
                <mxCell id="cw4E4tKnkDUjljcfsdXo-26" value="" style="endArrow=none;html=1;fontSize=12;fontColor=#1C0000;" edge="1" parent="1">
                    <mxGeometry width="50" height="50" relative="1" as="geometry">
                        <mxPoint x="145" y="610" as="sourcePoint"/>
                        <mxPoint x="495" y="270" as="targetPoint"/>
                    </mxGeometry>
                </mxCell>
                <mxCell id="cw4E4tKnkDUjljcfsdXo-27" value="" style="endArrow=classic;html=1;fontSize=9;fontColor=#1C0000;" edge="1" parent="1">
                    <mxGeometry width="50" height="50" relative="1" as="geometry">
                        <mxPoint x="150" y="580" as="sourcePoint"/>
                        <mxPoint x="460" y="280" as="targetPoint"/>
                    </mxGeometry>
                </mxCell>
                <mxCell id="cw4E4tKnkDUjljcfsdXo-29" value="2.3.RetrunAnswer()&lt;br&gt;3.3.ReturnQuestions()" style="text;html=1;align=center;verticalAlign=middle;resizable=0;points=[];autosize=1;strokeColor=none;fillColor=none;fontSize=12;fontColor=#1C0000;" vertex="1" parent="1">
                    <mxGeometry x="125" y="425" width="140" height="40" as="geometry"/>
                </mxCell>
            </root>
        </mxGraphModel>
    </diagram>
</mxfile>
